<svg xmlns="http://www.w3.org/2000/svg" width="480" height="320" viewBox="0 0 480 320"><title>香煎土豆块示意插画</title><rect width="480" height="320" fill="#eadcbb"/><path d="M0 48h480M0 270h480" stroke="#ffffff44" stroke-width="1"/><path d="m371 38 31 243m-17-245 28 243" stroke="#97785b" stroke-width="6" stroke-linecap="round"/><ellipse cx="237" cy="174" rx="153" ry="108" fill="#3d583716"/><ellipse cx="235" cy="156" rx="147" ry="103" fill="#faf7e9" stroke="#fffdf4" stroke-width="9"/><ellipse cx="238" cy="155" rx="121" ry="84" fill="#eee9d7"/><rect x="143" y="121" width="44" height="35" rx="10" fill="#dba64c" stroke="#f0c574" stroke-width="4" transform="rotate(-20 164 138)"/><rect x="201" y="103" width="44" height="35" rx="10" fill="#dba64c" stroke="#f0c574" stroke-width="4" transform="rotate(25 222 120)"/><rect x="264" y="123" width="44" height="35" rx="10" fill="#dba64c" stroke="#f0c574" stroke-width="4" transform="rotate(-10 285 140)"/><rect x="176" y="170" width="44" height="35" rx="10" fill="#dba64c" stroke="#f0c574" stroke-width="4" transform="rotate(25 197 187)"/><rect x="246" y="172" width="44" height="35" rx="10" fill="#dba64c" stroke="#f0c574" stroke-width="4" transform="rotate(-20 267 189)"/><path d="M166 114l9 -4" stroke="#70864d" stroke-width="5" stroke-linecap="round"/><path d="M203 143l9 -4" stroke="#70864d" stroke-width="5" stroke-linecap="round"/><path d="M240 172l9 -4" stroke="#70864d" stroke-width="5" stroke-linecap="round"/><path d="M277 201l9 -4" stroke="#70864d" stroke-width="5" stroke-linecap="round"/><path d="M174 139l9 -4" stroke="#70864d" stroke-width="5" stroke-linecap="round"/><path d="M211 168l9 -4" stroke="#70864d" stroke-width="5" stroke-linecap="round"/><path d="M248 197l9 -4" stroke="#70864d" stroke-width="5" stroke-linecap="round"/><path d="M285 135l9 -4" stroke="#70864d" stroke-width="5" stroke-linecap="round"/><path d="M182 164l9 -4" stroke="#70864d" stroke-width="5" stroke-linecap="round"/><path d="M219 193l9 -4" stroke="#70864d" stroke-width="5" stroke-linecap="round"/><path d="M256 131l9 -4" stroke="#70864d" stroke-width="5" stroke-linecap="round"/><path d="M293 160l9 -4" stroke="#70864d" stroke-width="5" stroke-linecap="round"/><path d="M61 52q-29 7-25 38q25-6 25-38Z" fill="#7a9560"/><path d="m42 85 14-25" stroke="#e3eaca" stroke-width="2"/></svg>