<svg xmlns="http://www.w3.org/2000/svg" width="480" height="320" viewBox="0 0 480 320"><title>土豆胡萝卜焖饭示意插画</title><rect width="480" height="320" fill="#f0e4d1"/><path d="M0 48h480M0 270h480" stroke="#ffffff44" stroke-width="1"/><path d="m371 38 31 243m-17-245 28 243" stroke="#97785b" stroke-width="6" stroke-linecap="round"/><ellipse cx="237" cy="174" rx="153" ry="108" fill="#3d583716"/><ellipse cx="235" cy="156" rx="147" ry="103" fill="#faf7e9" stroke="#fffdf4" stroke-width="9"/><ellipse cx="238" cy="155" rx="121" ry="84" fill="#eee9d7"/><ellipse cx="240" cy="155" rx="9" ry="4" fill="#f9edcd" transform="rotate(0 240 155)"/><ellipse cx="231.76324365818041" cy="159.91409650881232" rx="9" ry="4" fill="#f9edcd" transform="rotate(19 231.76324365818041 159.91409650881232)"/><ellipse cx="241.35197616624743" cy="144.7602374154284" rx="9" ry="4" fill="#f9edcd" transform="rotate(38 241.35197616624743 144.7602374154284)"/><ellipse cx="251.8267274032721" cy="164.96703562988378" rx="9" ry="4" fill="#f9edcd" transform="rotate(57 251.8267274032721 164.96703562988378)"/><ellipse cx="217.96629410459673" cy="152.52352520555263" rx="9" ry="4" fill="#f9edcd" transform="rotate(76 217.96629410459673 152.52352520555263)"/><ellipse cx="261.0290139292143" cy="146.2122362251722" rx="9" ry="4" fill="#f9edcd" transform="rotate(95 261.0290139292143 146.2122362251722)"/><ellipse cx="233.04340954725149" cy="172.21709822582562" rx="9" ry="4" fill="#f9edcd" transform="rotate(114 233.04340954725149 172.21709822582562)"/><ellipse cx="226.18949686652238" cy="137.99693920636386" rx="9" ry="4" fill="#f9edcd" transform="rotate(133 226.18949686652238 137.99693920636386)"/><ellipse cx="269.78665642821386" cy="161.902103248622" rx="9" ry="4" fill="#f9edcd" transform="rotate(152 269.78665642821386 161.902103248622)"/><ellipse cx="209.10861604306135" cy="163.49295077270318" rx="9" ry="4" fill="#f9edcd" transform="rotate(171 209.10861604306135 163.49295077270318)"/><ellipse cx="254.67607781867557" cy="134.0924921956029" rx="9" ry="4" fill="#f9edcd" transform="rotate(190 254.67607781867557 134.0924921956029)"/><ellipse cx="251.4719968364277" cy="177.92015847299402" rx="9" ry="4" fill="#f9edcd" transform="rotate(209 251.4719968364277 177.92015847299402)"/><ellipse cx="206.26829293314117" cy="142.62996992908862" rx="9" ry="4" fill="#f9edcd" transform="rotate(228 206.26829293314117 142.62996992908862)"/><ellipse cx="279.2595897786766" cy="149.05384595740753" rx="9" ry="4" fill="#f9edcd" transform="rotate(247 279.2595897786766 149.05384595740753)"/><ellipse cx="216.40427457996606" cy="177.45316538828655" rx="9" ry="4" fill="#f9edcd" transform="rotate(266 216.40427457996606 177.45316538828655)"/><ellipse cx="233.81547794569178" cy="127.14272827894833" rx="9" ry="4" fill="#f9edcd" transform="rotate(285 233.81547794569178 127.14272827894833)"/><ellipse cx="274.63623691847175" cy="173.38858032649247" rx="9" ry="4" fill="#f9edcd" transform="rotate(304 274.63623691847175 173.38858032649247)"/><ellipse cx="193.97900472325765" cy="156.72807041359135" rx="9" ry="4" fill="#f9edcd" transform="rotate(323 193.97900472325765 156.72807041359135)"/><ellipse cx="273.0375882935927" cy="132.87594626901648" rx="9" ry="4" fill="#f9edcd" transform="rotate(342 273.0375882935927 132.87594626901648)"/><ellipse cx="238.6401808144161" cy="186.66474777695402" rx="9" ry="4" fill="#f9edcd" transform="rotate(361 238.6401808144161 186.66474777695402)"/><ellipse cx="207.23098081118567" cy="130.45278307744812" rx="9" ry="4" fill="#f9edcd" transform="rotate(380 207.23098081118567 130.45278307744812)"/><ellipse cx="290.90499669447723" cy="158.7723141602533" rx="9" ry="4" fill="#f9edcd" transform="rotate(399 290.90499669447723 158.7723141602533)"/><ellipse cx="197.59812365772044" cy="175.0562751507185" rx="9" ry="4" fill="#f9edcd" transform="rotate(418 197.59812365772044 175.0562751507185)"/><ellipse cx="250.60665782291875" cy="120.83633879174941" rx="9" ry="4" fill="#f9edcd" transform="rotate(437 250.60665782291875 120.83633879174941)"/><ellipse cx="268.32295703948375" cy="185.4725248243063" rx="9" ry="4" fill="#f9edcd" transform="rotate(456 268.32295703948375 185.4725248243063)"/><ellipse cx="186.34919151095227" cy="144.79291465553368" rx="9" ry="4" fill="#f9edcd" transform="rotate(475 186.34919151095227 144.79291465553368)"/><ellipse cx="291.13707056274063" cy="138.6205156972085" rx="9" ry="4" fill="#f9edcd" transform="rotate(494 291.13707056274063 138.6205156972085)"/><ellipse cx="218.973053367766" cy="190.2013710702423" rx="9" ry="4" fill="#f9edcd" transform="rotate(513 218.973053367766 190.2013710702423)"/><ellipse cx="218.4829310239202" cy="119.17906825218364" rx="9" ry="4" fill="#f9edcd" transform="rotate(532 218.4829310239202 119.17906825218364)"/><ellipse cx="294.05700697418007" cy="172.2322342930257" rx="9" ry="4" fill="#f9edcd" transform="rotate(551 294.05700697418007 172.2322342930257)"/><ellipse cx="181.2611257763083" cy="166.25353796409516" rx="9" ry="4" fill="#f9edcd" transform="rotate(570 181.2611257763083 166.25353796409516)"/><ellipse cx="272.08863409393155" cy="120.32800099591907" rx="9" ry="4" fill="#f9edcd" transform="rotate(589 272.08863409393155 120.32800099591907)"/><ellipse cx="252.6281705359089" cy="195.28180275281895" rx="9" ry="4" fill="#f9edcd" transform="rotate(608 252.6281705359089 195.28180275281895)"/><ellipse cx="187.99713349347257" cy="130.50007056680445" rx="9" ry="4" fill="#f9edcd" transform="rotate(627 187.99713349347257 130.50007056680445)"/><ellipse cx="304.7583517529478" cy="150.12041409984147" rx="9" ry="4" fill="#f9edcd" transform="rotate(646 304.7583517529478 150.12041409984147)"/><ellipse cx="196.7452334713123" cy="187.5261530987271" rx="9" ry="4" fill="#f9edcd" transform="rotate(665 196.7452334713123 187.5261530987271)"/><ellipse cx="238.00138695362656" cy="111.41603112222464" rx="9" ry="4" fill="#f9edcd" transform="rotate(684 238.00138695362656 111.41603112222464)"/><ellipse cx="287.458897282098" cy="186.66142639797158" rx="9" ry="4" fill="#f9edcd" transform="rotate(703 287.458897282098 186.66142639797158)"/><ellipse cx="171.18707496720222" cy="152.50097624823056" rx="9" ry="4" fill="#f9edcd" transform="rotate(722 171.18707496720222 152.50097624823056)"/><ellipse cx="293.99216938978793" cy="126.22440643814748" rx="9" ry="4" fill="#f9edcd" transform="rotate(741 293.99216938978793 126.22440643814748)"/><ellipse cx="230.03311035385835" cy="200.503069339389" rx="9" ry="4" fill="#f9edcd" transform="rotate(760 230.03311035385835 200.503069339389)"/><ellipse cx="199.5087320506812" cy="116.62545537222158" rx="9" ry="4" fill="#f9edcd" transform="rotate(779 199.5087320506812 116.62545537222158)"/><ellipse cx="310.5974986842301" cy="165.6010432671261" rx="9" ry="4" fill="#f9edcd" transform="rotate(798 310.5974986842301 165.6010432671261)"/><ellipse cx="176.21516229815447" cy="178.49455080492172" rx="9" ry="4" fill="#f9edcd" transform="rotate(817 176.21516229815447 178.49455080492172)"/><ellipse cx="262.8105608598181" cy="109.13155673720138" rx="9" ry="4" fill="#f9edcd" transform="rotate(836 262.8105608598181 109.13155673720138)"/><ellipse cx="271.26166624253705" cy="199.31316649180292" rx="9" ry="4" fill="#f9edcd" transform="rotate(855 271.26166624253705 199.31316649180292)"/><ellipse cx="170.10573260216626" cy="135.88523188399222" rx="9" ry="4" fill="#f9edcd" transform="rotate(874 170.10573260216626 135.88523188399222)"/><ellipse cx="312.1492762251602" cy="138.18167309960984" rx="9" ry="4" fill="#f9edcd" transform="rotate(893 312.1492762251602 138.18167309960984)"/><ellipse cx="203.96524115070713" cy="199.5688470273741" rx="9" ry="4" fill="#f9edcd" transform="rotate(912 203.96524115070713 199.5688470273741)"/><ellipse cx="219.97674856141637" cy="105.82257304136363" rx="9" ry="4" fill="#f9edcd" transform="rotate(931 219.97674856141637 105.82257304136363)"/><ellipse cx="306.5803268626783" cy="182.70754196293663" rx="9" ry="4" fill="#f9edcd" transform="rotate(950 306.5803268626783 182.70754196293663)"/><ellipse cx="161.34980571701192" cy="163.93949561398054" rx="9" ry="4" fill="#f9edcd" transform="rotate(969 161.34980571701192 163.93949561398054)"/><ellipse cx="289.1177541897687" cy="113.4434598484566" rx="9" ry="4" fill="#f9edcd" transform="rotate(988 289.1177541897687 113.4434598484566)"/><ellipse cx="247.11309984642503" cy="207.70375328160083" rx="9" ry="4" fill="#f9edcd" transform="rotate(1007 247.11309984642503 207.70375328160083)"/><ellipse cx="179.36747728642098" cy="118.96339274409777" rx="9" ry="4" fill="#f9edcd" transform="rotate(1026 179.36747728642098 118.96339274409777)"/><ellipse cx="322.9154714400481" cy="154.89806003236723" rx="9" ry="4" fill="#f9edcd" transform="rotate(1045 322.9154714400481 154.89806003236723)"/><ellipse cx="178.46887854747024" cy="191.84944588057573" rx="9" ry="4" fill="#f9edcd" transform="rotate(1064 178.46887854747024 191.84944588057573)"/><ellipse cx="247.05849274920436" cy="100.32585099111067" rx="9" ry="4" fill="#f9edcd" transform="rotate(1083 247.05849274920436 100.32585099111067)"/><ellipse cx="292.12918324417564" cy="198.76073168309352" rx="9" ry="4" fill="#f9edcd" transform="rotate(1102 292.12918324417564 198.76073168309352)"/><ellipse cx="155.35042168561495" cy="145.59297302381654" rx="9" ry="4" fill="#f9edcd" transform="rotate(1121 155.35042168561495 145.59297302381654)"/><ellipse cx="312.7579278013312" cy="124.46878702837415" rx="9" ry="4" fill="#f9edcd" transform="rotate(1140 312.7579278013312 124.46878702837415)"/><ellipse cx="217.97855063762884" cy="209.92425294869082" rx="9" ry="4" fill="#f9edcd" transform="rotate(1159 217.97855063762884 209.92425294869082)"/><ellipse cx="198.75145091273544" cy="104.44789404745228" rx="9" ry="4" fill="#f9edcd" transform="rotate(1178 198.75145091273544 104.44789404745228)"/><ellipse cx="323.6448099952264" cy="174.26617720162446" rx="9" ry="4" fill="#f9edcd" transform="rotate(1197 323.6448099952264 174.26617720162446)"/><ellipse cx="157.68902701366216" cy="177.74910600997103" rx="9" ry="4" fill="#f9edcd" transform="rotate(1216 157.68902701366216 177.74910600997103)"/><ellipse cx="277.2616264540031" cy="101.65019841212165" rx="9" ry="4" fill="#f9edcd" transform="rotate(1235 277.2616264540031 101.65019841212165)"/><ellipse cx="268.26385920144884" cy="211.108044665045" rx="9" ry="4" fill="#f9edcd" transform="rotate(1254 268.26385920144884 211.108044665045)"/><ellipse cx="160.21017357117" cy="125.86880417236257" rx="9" ry="4" fill="#f9edcd" transform="rotate(1273 160.21017357117 125.86880417236257)"/><ellipse cx="329.75038327938944" cy="141.29025797988393" rx="9" ry="4" fill="#f9edcd" transform="rotate(1292 329.75038327938944 141.29025797988393)"/><ellipse cx="187.7617228466819" cy="204.91120729878656" rx="9" ry="4" fill="#f9edcd" transform="rotate(1311 187.7617228466819 204.91120729878656)"/><ellipse cx="226.46481428609354" cy="94.83794824892479" rx="9" ry="4" fill="#f9edcd" transform="rotate(1330 226.46481428609354 94.83794824892479)"/><ellipse cx="313.0751188857774" cy="193.6464604773576" rx="9" ry="4" fill="#f9edcd" transform="rotate(1349 313.0751188857774 193.6464604773576)"/><ellipse cx="145.3000911682004" cy="158.67277421204133" rx="9" ry="4" fill="#f9edcd" transform="rotate(1368 145.3000911682004 158.67277421204133)"/><ellipse cx="306.4026810505066" cy="110.3639555002772" rx="9" ry="4" fill="#f9edcd" transform="rotate(1387 306.4026810505066 110.3639555002772)"/><ellipse cx="237.49823269140194" cy="217.49384481883763" rx="9" ry="4" fill="#f9edcd" transform="rotate(1406 237.49823269140194 217.49384481883763)"/><ellipse cx="176.40485614881595" cy="107.54262049811226" rx="9" ry="4" fill="#f9edcd" transform="rotate(1425 176.40485614881595 107.54262049811226)"/><ellipse cx="336.8613297079147" cy="162.0573001954136" rx="9" ry="4" fill="#f9edcd" transform="rotate(1444 336.8613297079147 162.0573001954136)"/><ellipse cx="160.7826806756006" cy="192.61931544833345" rx="9" ry="4" fill="#f9edcd" transform="rotate(1463 160.7826806756006 192.61931544833345)"/><ellipse cx="259.34957478353226" cy="92.06202699258762" rx="9" ry="4" fill="#f9edcd" transform="rotate(1482 259.34957478353226 92.06202699258762)"/><ellipse cx="291.54698833719954" cy="210.2228768464352" rx="9" ry="4" fill="#f9edcd" transform="rotate(1501 291.54698833719954 210.2228768464352)"/><rect x="143" y="121" width="44" height="35" rx="10" fill="#dba64c" stroke="#f0c574" stroke-width="4" transform="rotate(-20 164 138)"/><rect x="201" y="103" width="44" height="35" rx="10" fill="#dba64c" stroke="#f0c574" stroke-width="4" transform="rotate(25 222 120)"/><rect x="264" y="123" width="44" height="35" rx="10" fill="#dba64c" stroke="#f0c574" stroke-width="4" transform="rotate(-10 285 140)"/><rect x="176" y="170" width="44" height="35" rx="10" fill="#dba64c" stroke="#f0c574" stroke-width="4" transform="rotate(25 197 187)"/><rect x="246" y="172" width="44" height="35" rx="10" fill="#dba64c" stroke="#f0c574" stroke-width="4" transform="rotate(-20 267 189)"/><path d="M166 114l9 -4" stroke="#70864d" stroke-width="5" stroke-linecap="round"/><path d="M203 143l9 -4" stroke="#70864d" stroke-width="5" stroke-linecap="round"/><path d="M240 172l9 -4" stroke="#70864d" stroke-width="5" stroke-linecap="round"/><path d="M277 201l9 -4" stroke="#70864d" stroke-width="5" stroke-linecap="round"/><path d="M174 139l9 -4" stroke="#70864d" stroke-width="5" stroke-linecap="round"/><path d="M211 168l9 -4" stroke="#70864d" stroke-width="5" stroke-linecap="round"/><path d="M248 197l9 -4" stroke="#70864d" stroke-width="5" stroke-linecap="round"/><path d="M285 135l9 -4" stroke="#70864d" stroke-width="5" stroke-linecap="round"/><path d="M182 164l9 -4" stroke="#70864d" stroke-width="5" stroke-linecap="round"/><path d="M219 193l9 -4" stroke="#70864d" stroke-width="5" stroke-linecap="round"/><path d="M256 131l9 -4" stroke="#70864d" stroke-width="5" stroke-linecap="round"/><path d="M293 160l9 -4" stroke="#70864d" stroke-width="5" stroke-linecap="round"/><path d="M61 52q-29 7-25 38q25-6 25-38Z" fill="#7a9560"/><path d="m42 85 14-25" stroke="#e3eaca" stroke-width="2"/></svg>